<svg xmlns="http://www.w3.org/2000/svg" xmlns:xlink="http://www.w3.org/1999/xlink" width="460pt" height="250pt" viewBox="250 150 460 250" version="1.1">
<g id="surface1">
<path style=" stroke:none;fill-rule:nonzero;fill:rgb(95.298767%,26.298523%,20.799255%);fill-opacity:1;" d="M 525.433594 191.4375 C 536.367188 191.4375 545.230469 200.304688 545.230469 211.234375 C 545.230469 222.171875 536.367188 231.035156 525.433594 231.035156 L 501.5625 231.035156 C 490.628906 231.035156 481.765625 222.171875 481.765625 211.234375 C 481.765625 200.304688 490.628906 191.4375 501.5625 191.4375 "/>
<path style=" stroke:none;fill-rule:nonzero;fill:rgb(95.298767%,26.298523%,20.799255%);fill-opacity:1;" d="M 501.5625 289.796875 C 490.628906 289.796875 481.765625 280.933594 481.765625 270 C 481.765625 259.066406 490.628906 250.203125 501.5625 250.203125 L 588.898438 250.203125 C 599.832031 250.203125 608.695313 259.066406 608.695313 270 C 608.695313 280.933594 599.832031 289.796875 588.898438 289.796875 "/>
<path style=" stroke:none;fill-rule:nonzero;fill:rgb(91.398621%,11.399841%,38.798523%);fill-opacity:1;" d="M 501.5625 348.5625 C 490.628906 348.5625 481.765625 339.695313 481.765625 328.761719 C 481.765625 317.828125 490.628906 308.964844 501.5625 308.964844 L 652.363281 308.964844 C 663.296875 308.964844 672.160156 317.828125 672.160156 328.765625 L 672.160156 328.761719 C 672.160156 339.695313 663.296875 348.5625 652.363281 348.5625 "/>
<path style=" stroke:none;fill-rule:nonzero;fill:rgb(95.298767%,26.298523%,20.799255%);fill-opacity:1;" d="M 434.566406 348.5625 C 423.632813 348.5625 414.769531 339.695313 414.769531 328.765625 C 414.769531 317.828125 423.632813 308.964844 434.566406 308.964844 L 458.4375 308.964844 C 469.371094 308.964844 478.234375 317.828125 478.234375 328.765625 C 478.234375 339.695313 469.371094 348.5625 458.4375 348.5625 "/>
<path style=" stroke:none;fill-rule:nonzero;fill:rgb(95.298767%,26.298523%,20.799255%);fill-opacity:1;" d="M 458.4375 250.203125 C 469.371094 250.203125 478.234375 259.066406 478.234375 270 C 478.234375 280.933594 469.371094 289.796875 458.4375 289.796875 L 371.101563 289.796875 C 360.167969 289.796875 351.304688 280.933594 351.304688 270 C 351.304688 259.066406 360.167969 250.203125 371.101563 250.203125 "/>
<path style=" stroke:none;fill-rule:nonzero;fill:rgb(91.398621%,11.399841%,38.798523%);fill-opacity:1;" d="M 458.4375 191.4375 C 469.371094 191.4375 478.234375 200.304688 478.234375 211.238281 C 478.234375 222.171875 469.371094 231.035156 458.4375 231.035156 L 307.636719 231.035156 C 296.703125 231.035156 287.839844 222.171875 287.839844 211.234375 L 287.839844 211.238281 C 287.839844 200.304688 296.703125 191.4375 307.636719 191.4375 "/>
</g>
</svg>